<svg width="24" height="24" viewBox="0 0 24 24" fill="#" xmlns="http://www.w3.org/2000/svg">
<path fill-rule="evenodd" clip-rule="evenodd" d="M20.6482 14.5C20.8773 13.7063 21 12.8675 21 12C21 11.1325 20.8773 10.2937 20.6482 9.5H16.8425C16.9453 10.299 17 11.1368 17 12C17 12.8632 16.9453 13.701 16.8425 14.5H20.6482ZM15.8338 14.5H12.5V9.5H15.8338C15.9416 10.2913 16 11.1293 16 12C16 12.8707 15.9416 13.7087 15.8338 14.5ZM16.6852 8.5H20.2941C19.2484 6.02492 17.1271 4.11513 14.516 3.35639C15.5057 4.51119 16.2791 6.32643 16.6852 8.5ZM12.5 3.08383C13.1894 3.31082 13.96 4.01393 14.6411 5.37615C15.0745 6.24299 15.4288 7.30372 15.6668 8.5H12.5V3.08383ZM12 2C6.47715 2 2 6.47715 2 12C2 17.5228 6.47715 22 12 22C17.5228 22 22 17.5228 22 12C22 6.47715 17.5228 2 12 2ZM12.5 20.9162V15.5H15.6668C15.4288 16.6963 15.0745 17.757 14.6411 18.6239C13.96 19.9861 13.1894 20.6892 12.5 20.9162ZM14.516 20.6436C15.5057 19.4888 16.2791 17.6736 16.6852 15.5H20.2941C19.2484 17.9751 17.1271 19.8849 14.516 20.6436ZM11.5 20.9162C10.8106 20.6892 10.04 19.9861 9.35889 18.6239C8.92547 17.757 8.57123 16.6963 8.33321 15.5H11.5V20.9162ZM7.3148 15.5C7.72091 17.6736 8.49433 19.4888 9.48402 20.6436C6.87293 19.8849 4.75165 17.9751 3.70591 15.5H7.3148ZM7.15752 14.5H3.35177C3.12273 13.7063 3 12.8675 3 12C3 11.1325 3.12273 10.2937 3.35177 9.5H7.15752C7.05469 10.299 7 11.1368 7 12C7 12.8632 7.05469 13.7009 7.15752 14.5ZM8.16622 14.5C8.05843 13.7087 8 12.8707 8 12C8 11.1293 8.05843 10.2913 8.16622 9.5H11.5V14.5H8.16622ZM8.33321 8.5H11.5V3.08383C10.8106 3.31082 10.04 4.01393 9.35889 5.37615C8.92547 6.24299 8.57123 7.30372 8.33321 8.5ZM7.3148 8.5C7.72091 6.32643 8.49433 4.51119 9.48402 3.35639C6.87293 4.11513 4.75165 6.02492 3.70591 8.5H7.3148Z" fill="white"/>
</svg>
