<svg width="24" height="24" viewBox="0 0 24 24" fill="none" xmlns="http://www.w3.org/2000/svg">
<path fill-rule="evenodd" clip-rule="evenodd" d="M19.0342 17.6148C20.2644 16.0756 21 14.1237 21 12C21 7.02944 16.9706 3 12 3C7.02944 3 3 7.02944 3 12C3 14.1237 3.73555 16.0756 4.96579 17.6148C6.70308 15.7021 9.2113 14.5 12 14.5C14.7887 14.5 17.2969 15.7021 19.0342 17.6148ZM18.3634 18.3645C16.8056 16.6067 14.5322 15.5 12 15.5C9.46783 15.5 7.19444 16.6067 5.63659 18.3645C7.26522 19.9929 9.515 21 12 21C14.485 21 16.7348 19.9929 18.3634 18.3645ZM12 22C17.5228 22 22 17.5228 22 12C22 6.47715 17.5228 2 12 2C6.47715 2 2 6.47715 2 12C2 17.5228 6.47715 22 12 22ZM12 12C13.6569 12 15 10.6569 15 9C15 7.34315 13.6569 6 12 6C10.3431 6 9 7.34315 9 9C9 10.6569 10.3431 12 12 12ZM12 13C14.2091 13 16 11.2091 16 9C16 6.79086 14.2091 5 12 5C9.79086 5 8 6.79086 8 9C8 11.2091 9.79086 13 12 13Z" fill="white"/>
</svg>
