<svg width="123" height="24" viewBox="0 0 123 24" fill="none" xmlns="http://www.w3.org/2000/svg">
<g clip-path="url(#clip0_1107_9973)">
<path d="M43.1104 14.6271C44.5375 14.6271 45.6944 13.4509 45.6944 12C45.6944 10.549 44.5375 9.3728 43.1104 9.3728C41.6833 9.3728 40.5264 10.549 40.5264 12C40.5264 13.4509 41.6833 14.6271 43.1104 14.6271Z" fill="#00A8E8"/>
<path d="M19.4818 16.9512C19.4818 16.9512 19.3216 19.3945 19.8659 19.3945C20.3147 19.3945 20.6351 18.2867 21.5318 15.9415L27.5888 0.564697H31.8507L25.8264 15.9415C24.0323 20.9261 22.462 23.4342 19.2897 23.4342C17.0468 23.4342 15.5084 21.089 15.5084 16.9512V7.04768C15.5084 7.04768 15.6367 4.60441 15.0915 4.60441C14.7073 4.60441 14.4188 5.38643 13.778 7.04768H13.8098L10.3171 15.9415C8.52289 20.9261 6.95266 23.4342 3.78033 23.4342C1.53738 23.4342 -0.000976562 21.089 -0.000976562 16.9512V0.564697H3.97241V16.9512C3.97241 16.9512 3.8122 19.3945 4.35657 19.3945C4.80533 19.3945 5.12575 18.2867 6.02327 15.9415L9.16373 7.92778C10.9588 3.04124 12.529 0.564697 15.6686 0.564697C17.9115 0.564697 19.4818 2.87748 19.4818 7.04768V16.9512Z" fill="#DBDDDC"/>
<path d="M54.3686 11.9999C54.3686 18.2981 49.3056 23.4456 43.1108 23.4456C36.916 23.4456 31.853 18.2981 31.853 11.9999C31.853 5.7017 36.8841 0.554199 43.1099 0.554199C49.3357 0.554199 54.3677 5.6693 54.3677 11.9999H54.3686ZM50.4684 11.9675C50.4684 7.87525 47.135 4.5186 43.1099 4.5186C39.0849 4.5186 35.7515 7.87525 35.7515 11.9675C35.7515 16.0598 39.0849 19.4812 43.1099 19.4812C47.135 19.4812 50.4684 16.0606 50.4684 11.9675Z" fill="#DBDDDC"/>
<path d="M72.1599 19.3789V23.4187H63.829C60.176 23.4187 57.1958 20.3887 57.1958 16.6747V0.581543H61.1692V16.6747C61.1692 18.1731 62.3544 19.3789 63.829 19.3789H72.1599Z" fill="#DBDDDC"/>
<path d="M88.7263 19.3789V23.4187H80.3954C76.7425 23.4187 73.7622 20.3887 73.7622 16.6747V0.581543H77.7356V16.6747C77.7356 18.1731 78.9208 19.3789 80.3954 19.3789H88.7263Z" fill="#DBDDDC"/>
<path d="M115.822 23.5H111.849V7.34115C111.849 5.64663 111.592 4.53971 110.503 4.53971C108.677 4.53971 107.042 7.40683 106.306 8.61182L96.8217 23.5H92.0791L101.563 8.61182C104.832 3.46432 106.947 0.5 111.304 0.5C113.996 0.5 115.822 3.04135 115.822 7.34115V23.5Z" fill="#00A8E8"/>
<path d="M119.026 0.581543H123V23.4187H119.026V0.581543Z" fill="#00A8E8"/>
<path d="M90.6099 14.6271C92.037 14.6271 93.1939 13.4509 93.1939 12C93.1939 10.549 92.037 9.3728 90.6099 9.3728C89.1828 9.3728 88.0259 10.549 88.0259 12C88.0259 13.4509 89.1828 14.6271 90.6099 14.6271Z" fill="#00A8E8"/>
</g>
<defs>
<clipPath id="clip0_1107_9973">
<rect width="123" height="23" fill="white" transform="translate(0 0.5)"/>
</clipPath>
</defs>
</svg>
