<svg width="1440" height="796" viewBox="0 0 1440 796" fill="none" xmlns="http://www.w3.org/2000/svg">
<g clip-path="url(#clip0_15_2480)">
<rect width="1440" height="796" fill="white"/>
<path d="M-146.04 1155.5H-421.08L130.834 303.762L130.834 303.761C226.038 156.375 304.394 40.3097 390.655 -38.9182C476.887 -118.12 571.012 -160.5 697.779 -160.5C775.992 -160.5 841.628 -124.211 887.728 -57.1805C933.84 9.86626 960.417 107.689 960.417 230.73V1155.5H729.986V230.73C729.986 182.211 726.252 142.019 714.546 113.945C708.689 99.8983 700.826 88.8582 690.412 81.3318C679.994 73.8023 667.063 69.8173 651.122 69.8173C624.401 69.8173 598.411 80.1285 573.806 96.6324C549.2 113.136 525.953 135.851 504.705 160.704C466.77 205.077 435.164 256.325 413.567 291.346C410.973 295.552 408.524 299.523 406.225 303.221C406.224 303.223 406.223 303.224 406.222 303.226L-146.04 1155.5Z" stroke="#00A8E8" stroke-opacity="0.2"/>
<path d="M1145.72 -153.774H1377.45V1148.77H1145.72V-153.774Z" stroke="#00A8E8" stroke-opacity="0.2"/>
</g>
<defs>
<clipPath id="clip0_15_2480">
<rect width="1440" height="796" fill="white"/>
</clipPath>
</defs>
</svg>
